<svg width="109" height="35" viewBox="0 0 109 35" fill="none" xmlns="http://www.w3.org/2000/svg">
<g clip-path="url(#clip0_1224_1519)">
<g clip-path="url(#clip1_1224_1519)">
<mask id="mask0_1224_1519" style="mask-type:luminance" maskUnits="userSpaceOnUse" x="0" y="0" width="109" height="35">
<path d="M108.626 0H0.373711V34.5301H108.626V0Z" fill="white"/>
</mask>
<g mask="url(#mask0_1224_1519)">
<path d="M101.907 28.4012C102.142 28.6698 102.377 28.9368 102.609 29.2011C102.079 29.8474 101.432 30.3279 100.712 30.633C97.9598 31.6497 95.3666 30.5243 94.2801 28.2836C94.2703 28.2629 94.2606 28.2422 94.2507 28.2214C94.2442 28.2076 94.2378 28.1935 94.2312 28.1795C94.2278 28.1717 94.2243 28.1636 94.2206 28.1556C94.2143 28.1415 94.2079 28.1275 94.2016 28.1131C94.1926 28.0929 94.1841 28.0726 94.1752 28.0518C94.1691 28.038 94.1633 28.0239 94.1573 28.0098C94.1401 27.9673 94.1228 27.9242 94.1061 27.8808C94.0987 27.8609 94.0911 27.8414 94.0837 27.8215C94.0693 27.7822 94.0553 27.7428 94.0417 27.7027C94.0351 27.6841 94.0288 27.6651 94.0227 27.6464C94.0104 27.6094 93.9986 27.5716 93.9871 27.534C93.8588 27.1128 93.7783 26.6622 93.7534 26.1872C93.7531 26.1861 93.7531 26.1849 93.7531 26.1835C93.7522 26.1671 93.7516 26.1509 93.7508 26.1346C93.7493 26.1084 93.7484 26.0823 93.7476 26.0558C93.7476 26.0521 93.7473 26.0484 93.7473 26.0446C93.7461 26.0066 93.7455 25.9684 93.745 25.9302C93.7447 25.8868 93.7447 25.8434 93.745 25.7994C93.7455 25.7574 93.7464 25.7154 93.7476 25.6737C93.7476 25.6717 93.7476 25.6697 93.7479 25.6677C93.749 25.6363 93.7502 25.6052 93.7516 25.5742C93.7519 25.5708 93.7519 25.5673 93.7522 25.5641C93.7525 25.5569 93.7531 25.5498 93.7534 25.5428C93.7537 25.5395 93.7537 25.5363 93.7539 25.5328C93.7539 25.5308 93.7542 25.5287 93.7542 25.5268C93.7801 25.0655 93.8578 24.6277 93.9805 24.2171C93.9871 24.1952 93.9937 24.1737 94.0006 24.152C94.0024 24.1461 94.0043 24.14 94.0063 24.134C94.0098 24.1227 94.0133 24.1115 94.017 24.1003C94.017 24.1 94.017 24.1006 94.017 24.1003C94.0173 24.0991 94.0179 24.0974 94.0184 24.0963C94.0262 24.0727 94.0342 24.0489 94.0423 24.0256C94.0472 24.0109 94.0521 23.9965 94.0573 23.9821C94.0579 23.9801 94.0587 23.9781 94.0593 23.9762C94.067 23.954 94.0751 23.9319 94.0831 23.9097C94.0906 23.8893 94.0984 23.8689 94.1061 23.8487C94.1208 23.8096 94.1363 23.7706 94.1527 23.7317C94.1605 23.7122 94.1688 23.6929 94.1769 23.6736C94.1849 23.6544 94.1932 23.6354 94.2016 23.6164C94.2102 23.5972 94.2186 23.5782 94.2272 23.5592C94.2395 23.5319 94.2522 23.5049 94.2648 23.4781C95.3408 21.2179 97.9424 20.077 100.705 21.0943C101.428 21.3991 102.078 21.88 102.609 22.5285C102.377 22.7926 102.142 23.0598 101.907 23.3283C101.78 23.4741 101.65 23.6202 101.522 23.7662C101.332 23.5914 101.142 23.4344 100.953 23.2953C99.6146 22.6009 98.5634 22.3927 97.7022 22.7052C97.2065 22.8853 96.7735 23.2378 96.3848 23.7697C95.9457 24.3703 95.737 25.1182 95.7444 25.8649C95.737 26.6116 95.9457 27.3595 96.3848 27.9602C96.7735 28.4918 97.2062 28.8445 97.702 29.0245C98.5631 29.337 99.6143 29.1289 100.953 28.4343C101.142 28.295 101.332 28.1381 101.522 27.9632C101.65 28.1093 101.78 28.2554 101.907 28.4012Z" fill="#2874FC"/>
<path d="M34.2927 13.8758C33.0042 13.8192 31.7386 13.7448 30.4718 13.7113C25.2515 13.5734 20.0494 13.7628 14.9301 14.8876C11.5187 15.6371 8.22418 16.6996 5.37765 18.8609C3.60573 20.2062 2.52169 21.9636 2.00075 24.2306C-0.446608 19.8014 -0.363426 12.3347 3.84118 6.85222C8.41296 0.890988 15.6545 -1.05253 21.7204 0.524218C29.9995 2.67622 33.8448 9.60266 34.2927 13.8758ZM27.9885 7.31037C22.947 7.31037 18.083 7.30525 13.2192 7.32895C13.0237 7.32989 12.693 7.5749 12.6553 7.75449C12.2138 9.85764 11.8165 11.9701 11.3767 14.2387C13.3354 13.9642 15.0571 13.7424 16.7688 13.4599C17.0004 13.4216 17.315 13.105 17.3621 12.8712C17.5271 12.0509 18.056 11.9914 18.7422 11.9902C21.196 11.9857 23.6507 11.9598 26.1028 11.8757C26.4516 11.8637 27.01 11.5496 27.0916 11.266C27.4641 9.97195 27.7009 8.63886 27.9885 7.31037Z" fill="#2874FC"/>
<path d="M9.68798 21.3277C9.54412 22.6608 9.40473 23.9525 9.25013 25.3854C12.214 25.3854 15.0905 25.3894 17.967 25.3839C19.7219 25.3805 21.4773 25.3304 23.2313 25.3653C24.0319 25.3813 24.5228 25.2619 24.6426 24.3117C24.787 23.1662 25.1188 22.0443 25.4375 20.605C22.2115 20.605 19.1244 20.605 15.9284 20.605C15.9993 19.665 15.9886 19.0076 16.1249 18.3823C16.1818 18.121 16.5134 17.8032 16.7835 17.7218C23.1315 15.8073 29.6441 15.1961 36.2456 15.3238C36.3141 15.3251 36.3815 15.381 36.4508 15.4122C36.4622 15.4831 36.4987 15.6059 36.4784 15.6161C34.4142 16.6555 34.8176 18.7266 34.4432 20.4706C32.9402 27.4706 28.6435 32.0016 21.8547 33.8902C16.2308 35.4548 11.0151 34.1044 6.50829 30.3506C6.07338 29.9883 5.80767 29.2694 5.71439 28.6765C5.2769 25.8951 7.15239 22.446 9.68798 21.3277Z" fill="#2874FC"/>
<path d="M61.163 14.829C61.5354 13.9308 61.7144 13.1414 62.145 12.5291C63.351 10.8141 64.6641 9.17467 65.9248 7.49781C66.053 7.32722 66.1126 7.10499 66.2883 6.72422C64.6207 6.72422 63.0943 6.72422 61.5114 6.72422C61.5114 6.11986 61.5114 5.66758 61.5114 5.11415C61.8056 5.07772 62.0999 5.00983 62.3944 5.00946C67.5924 5.00299 72.7903 5.01635 77.9882 4.99126C78.7113 4.98778 79.0948 5.1833 79.3668 5.90542C80.0491 7.71648 80.8384 9.48747 81.597 11.2693C81.7443 11.6152 81.9475 11.9372 82.2621 12.5278C82.8736 10.8826 83.3946 9.48691 83.9104 8.08923C84.0578 7.69011 84.1866 7.28426 84.3298 6.88359C85.0374 4.90446 85.0381 4.90471 87.3595 5.08016C86.7891 6.49701 86.242 7.86688 85.6866 9.2333C84.4309 12.3221 83.1022 15.3837 81.9444 18.5087C81.4319 19.8923 80.4615 19.3751 79.3984 19.4851C79.9251 18.2419 80.4231 17.1272 80.8634 15.9901C80.9936 15.6538 81.1089 15.19 80.98 14.8939C79.7478 12.0633 78.4618 9.25616 77.097 6.23378C75.3473 8.5571 73.7089 10.7327 71.8979 13.1374C73.7458 13.1374 75.3095 13.1374 76.9645 13.1374C76.9645 13.7604 76.9645 14.2458 76.9645 14.8291C71.8453 14.829 66.7244 14.829 61.163 14.829ZM74.3256 6.84538C72.3744 6.74043 70.7094 6.65084 68.9071 6.55392C67.4491 8.52693 65.7995 10.7592 63.9594 13.2493C65.9053 13.2493 67.4551 13.2621 69.0041 13.2353C69.2339 13.2313 69.5399 13.1021 69.6763 12.9265C71.1919 10.9762 72.6811 9.00538 74.3256 6.84538Z" fill="#2874FC"/>
<path d="M65.0887 30.7851C64.372 30.7851 63.7249 30.7851 62.9995 30.7851C62.946 30.4025 62.8958 30.0443 62.8302 29.5748C61.4947 30.6241 60.1863 31.2848 58.4864 30.8985C56.0042 30.3342 54.6444 26.9584 55.0719 25.1053C55.1417 24.8029 55.2314 24.502 55.2654 24.1951C55.3053 23.8353 55.3989 23.1986 55.2869 23.1555C54.8854 23.0009 54.3747 22.9269 53.9637 23.0383C52.6107 23.405 52.046 24.2456 52.0444 25.7029C52.0427 27.3723 52.0441 29.0419 52.0441 30.7782C51.265 30.7782 50.6185 30.7782 49.8876 30.7782C49.8876 27.5298 49.8876 24.3121 49.8876 21.011C50.5759 21.011 51.2493 21.011 51.9737 21.011C52.0188 21.4973 52.0605 21.9482 52.1183 22.5716C53.219 21.378 54.2977 20.3919 56.0368 20.879C55.984 21.3476 55.9337 21.7936 55.8513 22.5244C58.1499 20.46 60.4124 19.9367 62.8176 22.175C62.8885 21.7088 62.9377 21.385 62.997 20.9953C63.6767 20.9953 64.3556 20.9953 65.0887 20.9953C65.0887 24.2804 65.0887 27.5001 65.0887 30.7851ZM57.1898 25.8552C57.1899 27.8169 58.3887 29.2047 60.1032 29.2277C61.8647 29.2514 63.1169 27.8129 63.0858 25.8014C63.0558 23.8692 61.9078 22.6043 60.1659 22.5845C58.3933 22.5643 57.1898 23.887 57.1898 25.8552Z" fill="#2874FC"/>
<path d="M108.174 20.9221V22.7752C107.547 22.8129 106.902 22.8517 106.116 22.8992V30.7663H103.867V22.8896C103.125 22.8449 102.51 22.8077 101.909 22.7718V20.9187H103.877C103.883 20.8933 103.891 20.8634 103.901 20.8278C103.944 20.0613 103.988 19.2666 104.035 18.4385H106.028C106.071 19.2999 106.111 20.0716 106.153 20.9221H108.174Z" fill="#2874FC"/>
<path d="M49.1429 9.18078C47.3887 9.18078 45.7205 9.18078 43.9764 9.18078C43.9764 10.444 43.9764 11.6282 43.9764 12.9409C46.0669 12.9409 48.1153 12.9409 50.2413 12.9409C50.2413 13.6284 50.2413 14.1899 50.2413 14.8389C47.4295 14.8389 44.6402 14.8389 41.75 14.8389C41.75 10.4944 41.75 6.15354 41.75 1.7334C44.5545 1.7334 47.337 1.7334 50.1617 1.7334C50.1617 2.35317 50.1617 2.91414 50.1617 3.60144C48.0819 3.60144 46.0715 3.60144 43.9818 3.60144C43.9818 4.79732 43.9818 5.86762 43.9818 7.07909C45.6717 7.07909 47.3658 7.07909 49.1429 7.07909C49.1429 7.81922 49.1429 8.42173 49.1429 9.18078Z" fill="#2874FC"/>
<path d="M58.6257 6.21475C58.6847 5.76382 58.7282 5.431 58.7772 5.05699C59.4843 5.05699 60.1353 5.05699 60.8656 5.05699C60.8656 8.29806 60.8656 11.5141 60.8656 14.8278C60.1779 14.8278 59.5067 14.8278 58.7713 14.8278C58.7302 14.4739 58.691 14.1371 58.6357 13.6614C57.2642 14.7007 55.8272 15.5817 54.1536 14.8866C53.2697 14.5195 52.3727 13.8783 51.8029 13.1197C50.2176 11.009 50.5859 7.69756 52.4296 5.99479C54.2201 4.34115 56.2387 4.37756 58.6257 6.21475ZM55.8663 6.66156C54.103 6.68963 52.9506 8.02646 52.9761 10.0141C53.001 11.962 54.2426 13.3226 55.9743 13.2998C57.6903 13.2773 58.8811 11.8834 58.8719 9.90811C58.8628 7.93402 57.6583 6.63304 55.8663 6.66156Z" fill="#2874FC"/>
<path d="M90.9437 22.1348C91.0029 21.6869 91.0469 21.3549 91.0964 20.9803C91.8029 20.9803 92.4528 20.9803 93.1811 20.9803C93.1811 24.2287 93.1811 27.4436 93.1811 30.7535C92.4899 30.7535 91.8197 30.7535 91.0884 30.7535C91.0455 30.3914 91.0056 30.054 90.952 29.6004C89.6072 30.5806 88.2225 31.4958 86.5746 30.8322C85.6854 30.474 84.7338 29.8832 84.1905 29.125C82.4811 26.7393 82.8191 23.9324 84.6711 21.9947C86.367 20.2204 88.5205 20.2835 90.9437 22.1348ZM88.2532 22.5842C86.513 22.5702 85.3235 23.8413 85.2911 25.7498C85.2566 27.7772 86.4614 29.2094 88.217 29.2279C89.9351 29.2462 91.1457 27.8903 91.184 25.9044C91.2221 23.9427 90.0354 22.5985 88.2532 22.5842Z" fill="#2874FC"/>
<path d="M74.999 30.782C74.3695 30.782 73.7665 30.782 73.0292 30.782C73.0292 28.7397 73.0389 26.7603 73.0249 24.7811C73.0182 23.8388 72.7766 23.0256 71.7723 22.634C70.7319 22.2283 69.8079 22.5223 69.106 23.239C68.7221 23.6312 68.487 24.3211 68.4646 24.8877C68.3879 26.8248 68.4352 28.7666 68.4352 30.7747C67.6638 30.7747 67.0186 30.7747 66.2839 30.7747C66.2839 27.5414 66.2839 24.3288 66.2839 21.0219C66.9465 21.0219 67.6198 21.0219 68.3619 21.0219C68.4045 21.3798 68.4483 21.7475 68.4851 22.0569C69.3716 21.6338 70.188 21.0897 71.0859 20.8469C73.1068 20.3008 74.8292 21.4401 74.9635 23.5335C75.1166 25.9223 74.999 28.3285 74.999 30.782Z" fill="#2874FC"/>
<path d="M46.6162 30.78C46.1568 30.8091 45.8475 30.8089 45.5443 30.8516C44.6258 30.981 44.3299 30.6127 44.3473 29.6798C44.4017 26.7602 44.3673 23.839 44.3673 20.9184C44.3673 20.5369 44.3673 20.1553 44.3673 19.6303C43.0402 19.6303 41.8131 19.6303 40.5155 19.6303C40.5155 18.9222 40.5155 18.3567 40.5155 17.6846C43.8412 17.6846 47.1604 17.6846 50.5573 17.6846C50.5573 18.2881 50.5573 18.8856 50.5573 19.6088C49.5678 19.6088 48.6378 19.6631 47.7172 19.5934C46.8174 19.5251 46.5903 19.8916 46.6019 20.7358C46.6419 23.6557 46.6167 26.5767 46.6163 29.4972C46.6162 29.8818 46.6162 30.2663 46.6162 30.78Z" fill="#2874FC"/>
<path d="M80.5986 22.6047C78.8727 22.6047 77.3692 22.6047 75.7946 22.6047C75.7946 22.0269 75.7946 21.5452 75.7946 21C78.2432 21 80.6719 21 83.4904 21C83.1249 21.8968 82.9524 22.6786 82.53 23.2869C81.4032 24.9098 80.1663 26.4562 78.98 28.0381C78.7775 28.308 78.6083 28.6029 78.3076 29.0645C80.0622 29.0645 81.6277 29.0645 83.3049 29.0645C83.3049 29.697 83.3049 30.2045 83.3049 30.7826C80.8106 30.7826 78.3376 30.7826 75.8289 30.7826C75.5514 29.8484 75.8293 29.1311 76.404 28.4123C77.7104 26.7781 78.9572 25.096 80.2177 23.4255C80.3471 23.254 80.4053 23.0288 80.5986 22.6047Z" fill="#2874FC"/>
</g>
</g>
</g>
<defs>
<clipPath id="clip0_1224_1519">
<rect width="109" height="34.76" fill="white"/>
</clipPath>
<clipPath id="clip1_1224_1519">
<rect width="108.253" height="34.76" fill="white" transform="translate(0.373711)"/>
</clipPath>
</defs>
</svg>
